<svg width="25" height="24" viewBox="0 0 25 24" fill="none" xmlns="http://www.w3.org/2000/svg">
<path d="M12.3573 7.71573L13.7716 6.30152C15.5069 4.56616 18.3205 4.56616 20.0558 6.30152C21.7912 8.03688 21.7912 10.8504 20.0558 12.5858L12.3573 20.2843L4.65886 12.5858C2.9235 10.8504 2.92351 8.03687 4.65886 6.30152C6.39422 4.56616 9.20777 4.56616 10.9431 6.30152L12.3573 7.71573ZM12.3573 4.88731C9.84093 2.3709 5.76106 2.3709 3.24465 4.88731C0.72825 7.40371 0.728239 11.4836 3.24465 14L11.2967 22.052C11.8825 22.6378 12.8322 22.6378 13.418 22.052L21.47 14C23.9864 11.4836 23.9864 7.40372 21.47 4.88731C18.9542 2.37143 14.8755 2.3709 12.3589 4.88571C12.3584 4.88624 12.3579 4.88677 12.3573 4.88731Z" fill="#333333"/>
</svg>
