<?xml version="1.0" encoding="utf-8"?>
<!-- Generator: Adobe Illustrator 26.0.3, SVG Export Plug-In . SVG Version: 6.00 Build 0)  -->
<svg version="1.1" id="图层_1" xmlns="http://www.w3.org/2000/svg" xmlns:xlink="http://www.w3.org/1999/xlink" x="0px" y="0px"
	 viewBox="0 0 25 24" style="enable-background:new 0 0 25 24;" xml:space="preserve">
<style type="text/css">
	.st0{fill:#333333;}
</style>
<g>
	<path class="st0" d="M16.6,2.2h-9c-2.3,0-4.2,1.9-4.2,4.2v12c0,2.7,3.1,4.2,5.3,2.5l2.4-1.9c0.6-0.5,1.5-0.5,2.2,0l2.4,1.9
		c2.1,1.7,5.3,0.2,5.3-2.5v-12C20.9,4.2,19,2.2,16.6,2.2z M18.9,18.5c0,1-1.2,1.6-2,1l-2.4-1.9c-1.4-1.1-3.3-1.1-4.6,0l-2.4,1.9
		c-0.8,0.6-2,0.1-2-1v-12c0-1.2,1-2.2,2.2-2.2h9c1.2,0,2.2,1,2.2,2.2V18.5z"/>
	<path class="st0" d="M15.4,10h-2.2V7.8c0-0.6-0.4-1-1-1s-1,0.4-1,1V10H8.9c-0.6,0-1,0.4-1,1s0.4,1,1,1h2.2v2.2c0,0.6,0.4,1,1,1
		s1-0.4,1-1V12h2.2c0.6,0,1-0.4,1-1S15.9,10,15.4,10z"/>
</g>
</svg>
