<?xml version="1.0" encoding="utf-8"?>
<!-- Generator: Adobe Illustrator 25.0.1, SVG Export Plug-In . SVG Version: 6.00 Build 0)  -->
<svg version="1.2" baseProfile="tiny" id="图层_1"
	 xmlns="http://www.w3.org/2000/svg" xmlns:xlink="http://www.w3.org/1999/xlink" x="0px" y="0px" viewBox="0 0 24 24"
	 overflow="visible" xml:space="preserve">
<path fill-rule="evenodd" fill="#444444" d="M4.5,7c0-1.4,1.1-2.5,2.5-2.5h1.8c0.4,0,0.8-0.3,0.8-0.8S9.2,3,8.8,3H7C4.8,3,3,4.8,3,7
	v10c0,2.2,1.8,4,4,4h10c2.2,0,4-1.8,4-4v-3.2c0-0.4-0.3-0.8-0.8-0.8s-0.8,0.3-0.8,0.8V17c0,1.4-1.1,2.5-2.5,2.5H7
	c-1.4,0-2.5-1.1-2.5-2.5V7z M14.8,3C14.3,3,14,3.3,14,3.8s0.3,0.8,0.8,0.8h3c0.2,0,0.5,0,0.7,0.1l-9.9,10l-0.1,0.1
	c-0.2,0.3-0.2,0.7,0.1,1c0.3,0.3,0.8,0.3,1.1,0l9.9-9.9c0,0.2,0.1,0.3,0.1,0.5v2.5c0,0.4,0.3,0.8,0.8,0.8S21,9.2,21,8.8V6.2
	C21,4.5,19.5,3,17.8,3H14.8z"/>
</svg>
