<svg width="25" height="24" viewBox="0 0 25 24" fill="none" xmlns="http://www.w3.org/2000/svg">
<g clip-path="url(#clip0)">
<path d="M12.8 2.53777L15.4334 6.38028C15.8885 7.04434 16.5586 7.5312 17.3308 7.75883L21.7991 9.07598L18.9584 12.7679C18.4675 13.406 18.2115 14.1937 18.2336 14.9985L18.3617 19.655L13.9727 18.0943C13.2141 17.8245 12.3858 17.8245 11.6273 18.0943L7.23825 19.655L7.36632 14.9985C7.38846 14.1937 7.1325 13.406 6.64158 12.7679L3.80091 9.07598L8.26913 7.75883C9.04132 7.53121 9.71144 7.04434 10.1665 6.38028L12.8 2.53777ZM14.0373 0.805339C13.4415 -0.0640194 12.1585 -0.0640192 11.5627 0.805339L8.5168 5.24964C8.32176 5.53423 8.03456 5.74289 7.70363 5.84045L2.53562 7.36388C1.52469 7.66188 1.12823 8.88208 1.77092 9.71738L5.05647 13.9875C5.26687 14.261 5.37657 14.5986 5.36708 14.9435L5.21895 20.3293C5.18998 21.3829 6.22794 22.137 7.22096 21.7839L12.2974 19.9787C12.6225 19.8631 12.9775 19.8631 13.3026 19.9787L18.379 21.7839C19.372 22.137 20.41 21.3829 20.381 20.3293L20.2329 14.9435C20.2234 14.5986 20.3331 14.261 20.5435 13.9875L23.8291 9.71738C24.4717 8.88208 24.0753 7.66188 23.0644 7.36388L17.8963 5.84045C17.5654 5.74289 17.2782 5.53423 17.0832 5.24964L14.0373 0.805339Z" fill="#333333"/>
</g>
<defs>
<clipPath id="clip0">
<rect width="24" height="24" fill="white" transform="translate(0.799988)"/>
</clipPath>
</defs>
</svg>
