<svg width="20" height="20" viewBox="0 0 20 20" fill="none" xmlns="http://www.w3.org/2000/svg">
<path fill-rule="evenodd" clip-rule="evenodd" d="M4 1C4 0.447715 3.55228 0 3 0C2.44772 0 2 0.447715 2 1V2H1C0.447716 2 0 2.44772 0 3C0 3.55229 0.447716 4 1 4H2V15C2 16.6569 3.34315 18 5 18H16V19C16 19.5523 16.4477 20 17 20C17.5523 20 18 19.5523 18 19V18H19C19.5523 18 20 17.5523 20 17C20 16.4477 19.5523 16 19 16H18V5C18 3.34314 16.6569 2 15 2H4V1ZM4 4V15C4 15.5523 4.44771 16 5 16H16V5C16 4.44771 15.5523 4 15 4H4Z" fill="#333333"/>
</svg>
