<svg width="20" height="20" viewBox="0 0 20 20" fill="none" xmlns="http://www.w3.org/2000/svg">
<path fill-rule="evenodd" clip-rule="evenodd" d="M11.5 2.0835C12.3926 2.0835 13.1213 2.78515 13.1646 3.66698L13.1667 3.75016V4.60425H16.875C17.2202 4.60425 17.5 4.88407 17.5 5.22925C17.5 5.55412 17.2521 5.8211 16.9352 5.85139L16.875 5.85425H3.125C2.77982 5.85425 2.5 5.57443 2.5 5.22925C2.5 4.90437 2.74787 4.63739 3.06481 4.60711L3.125 4.60425H6.75V3.75016C6.75 2.85758 7.45165 2.12888 8.33348 2.08554L8.41667 2.0835H11.5ZM8 4.60425H11.9167V3.75016C11.9167 3.53648 11.7558 3.36037 11.5486 3.3363L11.5 3.3335H8.41667C8.20298 3.3335 8.02687 3.49435 8.0028 3.70157L8 3.75016V4.60425ZM15.1667 6.9585C15.4915 6.9585 15.7585 7.20637 15.7888 7.5233L15.7917 7.5835V16.4585C15.7917 17.3511 15.09 18.0798 14.2082 18.1231L14.125 18.1252H5.79167C4.89909 18.1252 4.17038 17.4235 4.12704 16.5417L4.125 16.4585V7.5835C4.125 7.23832 4.40482 6.9585 4.75 6.9585C5.07487 6.9585 5.34185 7.20637 5.37214 7.5233L5.375 7.5835V16.4585C5.375 16.6722 5.53585 16.8483 5.74307 16.8724L5.79167 16.8752H14.125C14.3387 16.8752 14.5148 16.7143 14.5389 16.5071L14.5417 16.4585V7.5835C14.5417 7.23832 14.8215 6.9585 15.1667 6.9585ZM12.4555 9.69005C12.4252 9.37311 12.1582 9.12524 11.8333 9.12524C11.4881 9.12524 11.2083 9.40507 11.2083 9.75024V13.9169L11.2112 13.9771C11.2415 14.294 11.5084 14.5419 11.8333 14.5419C12.1785 14.5419 12.4583 14.2621 12.4583 13.9169V9.75024L12.4555 9.69005ZM8.08331 9.12524C8.40819 9.12524 8.67517 9.37311 8.70545 9.69005L8.70831 9.75024V13.9169C8.70831 14.2621 8.42849 14.5419 8.08331 14.5419C7.75844 14.5419 7.49146 14.294 7.46117 13.9771L7.45831 13.9169V9.75024C7.45831 9.40507 7.73813 9.12524 8.08331 9.12524Z" fill="#999999"/>
</svg>
